<svg width="140" height="140" viewBox="0 0 140 140" fill="none" xmlns="http://www.w3.org/2000/svg">
<path d="M15.3125 70C15.3125 84.504 21.0742 98.414 31.3301 108.67C41.586 118.926 55.496 124.688 70 124.688C84.504 124.688 98.414 118.926 108.67 108.67C118.926 98.414 124.688 84.504 124.688 70C124.688 55.496 118.926 41.586 108.67 31.3301C98.414 21.0742 84.504 15.3125 70 15.3125C55.496 15.3125 41.586 21.0742 31.3301 31.3301C21.0742 41.586 15.3125 55.496 15.3125 70Z" fill="#7ED321"/>
<path d="M93.5156 100.912H46.4844C44.5293 100.912 42.9297 99.3125 42.9297 97.3574V68.0039C42.9297 66.0488 44.5293 64.4492 46.4844 64.4492H93.5156C95.4707 64.4492 97.0703 66.0488 97.0703 68.0039V97.3574C97.0703 99.3262 95.4707 100.912 93.5156 100.912ZM46.4844 67.1836C46.0332 67.1836 45.6641 67.5527 45.6641 68.0039V97.3574C45.6641 97.8086 46.0332 98.1777 46.4844 98.1777H93.5156C93.9668 98.1777 94.3359 97.8086 94.3359 97.3574V68.0039C94.3359 67.5527 93.9668 67.1836 93.5156 67.1836H46.4844Z" fill="white"/>
<path d="M50.8184 65.0918H48.084V59.8145C48.084 54.0039 50.3535 48.5352 54.4961 44.4062C58.6387 40.2773 64.1074 37.9941 69.9043 37.9941H70.082C75.8926 37.9941 81.3613 40.2637 85.4902 44.4062C89.6191 48.5488 91.9023 54.0176 91.9023 59.8145V60.1562H89.168V59.8145C89.168 49.2871 80.6094 40.7285 70.082 40.7285H69.9043C59.3769 40.7285 50.8184 49.2871 50.8184 59.8145V65.0918ZM82.8105 75.8789C82.291 75.3594 81.457 75.3594 80.9375 75.8789L68.6328 88.1836L61.9746 81.5254C61.4551 81.0059 60.6211 81.0059 60.1016 81.5254C59.582 82.0449 59.582 82.8789 60.1016 83.3984L67.5937 90.8906C67.9082 91.2051 68.3594 91.3281 68.7695 91.2598C69.1113 91.2598 69.4394 91.1231 69.6992 90.877L82.8105 77.7656C83.3301 77.2324 83.3301 76.3848 82.8105 75.8789Z" fill="white"/>
</svg>
